<svg width="122" height="34" viewBox="0 0 122 34" fill="none" xmlns="http://www.w3.org/2000/svg">
<path d="M60.1096 19.9321V6.63213H62.5416V12.1611H68.5076V6.63213H70.9396V19.9321H68.5076V14.1371H62.5416V19.9321H60.1096ZM76.8497 20.1601C75.9377 20.1601 75.1143 19.9511 74.3797 19.5331C73.6577 19.1151 73.0813 18.5388 72.6507 17.8041C72.2327 17.0568 72.0237 16.1955 72.0237 15.2201C72.0237 14.2448 72.239 13.3898 72.6697 12.6551C73.1003 11.9078 73.6767 11.3251 74.3987 10.9071C75.1333 10.4891 75.9567 10.2801 76.8687 10.2801C77.768 10.2801 78.5787 10.4891 79.3007 10.9071C80.0353 11.3251 80.6117 11.9078 81.0297 12.6551C81.4603 13.3898 81.6757 14.2448 81.6757 15.2201C81.6757 16.1955 81.4603 17.0568 81.0297 17.8041C80.6117 18.5388 80.0353 19.1151 79.3007 19.5331C78.566 19.9511 77.749 20.1601 76.8497 20.1601ZM76.8497 18.0511C77.483 18.0511 78.034 17.8168 78.5027 17.3481C78.9713 16.8668 79.2057 16.1575 79.2057 15.2201C79.2057 14.2828 78.9713 13.5798 78.5027 13.1111C78.034 12.6298 77.4893 12.3891 76.8687 12.3891C76.2227 12.3891 75.6653 12.6298 75.1967 13.1111C74.7407 13.5798 74.5127 14.2828 74.5127 15.2201C74.5127 16.1575 74.7407 16.8668 75.1967 17.3481C75.6653 17.8168 76.2163 18.0511 76.8497 18.0511ZM82.7101 19.9321V10.5081H84.8571L85.0661 11.7811C85.3701 11.3251 85.7691 10.9641 86.2631 10.6981C86.7698 10.4195 87.3525 10.2801 88.0111 10.2801C89.4678 10.2801 90.5001 10.8438 91.1081 11.9711C91.4501 11.4518 91.9061 11.0401 92.4761 10.7361C93.0588 10.4321 93.6921 10.2801 94.3761 10.2801C95.6048 10.2801 96.5485 10.6475 97.2071 11.3821C97.8658 12.1168 98.1951 13.1935 98.1951 14.6121V19.9321H95.7631V14.8401C95.7631 14.0295 95.6048 13.4088 95.2881 12.9781C94.9841 12.5475 94.5091 12.3321 93.8631 12.3321C93.2045 12.3321 92.6725 12.5728 92.2671 13.0541C91.8745 13.5355 91.6781 14.2068 91.6781 15.0681V19.9321H89.2461V14.8401C89.2461 14.0295 89.0878 13.4088 88.7711 12.9781C88.4545 12.5475 87.9668 12.3321 87.3081 12.3321C86.6621 12.3321 86.1365 12.5728 85.7311 13.0541C85.3385 13.5355 85.1421 14.2068 85.1421 15.0681V19.9321H82.7101ZM103.943 20.1601C102.993 20.1601 102.151 19.9575 101.416 19.5521C100.681 19.1468 100.105 18.5768 99.6871 17.8421C99.2691 17.1075 99.0601 16.2588 99.0601 15.2961C99.0601 14.3208 99.2627 13.4531 99.6681 12.6931C100.086 11.9331 100.656 11.3441 101.378 10.9261C102.113 10.4955 102.974 10.2801 103.962 10.2801C104.887 10.2801 105.704 10.4828 106.413 10.8881C107.122 11.2935 107.673 11.8508 108.066 12.5601C108.471 13.2568 108.674 14.0358 108.674 14.8971C108.674 15.0365 108.668 15.1821 108.655 15.3341C108.655 15.4861 108.649 15.6445 108.636 15.8091H101.473C101.524 16.5438 101.777 17.1201 102.233 17.5381C102.702 17.9561 103.265 18.1651 103.924 18.1651C104.418 18.1651 104.83 18.0575 105.159 17.8421C105.501 17.6141 105.754 17.3228 105.919 16.9681H108.389C108.212 17.5635 107.914 18.1081 107.496 18.6021C107.091 19.0835 106.584 19.4635 105.976 19.7421C105.381 20.0208 104.703 20.1601 103.943 20.1601ZM103.962 12.2561C103.367 12.2561 102.841 12.4271 102.385 12.7691C101.929 13.0985 101.638 13.6051 101.511 14.2891H106.204C106.166 13.6685 105.938 13.1745 105.52 12.8071C105.102 12.4398 104.583 12.2561 103.962 12.2561Z" fill="white"/>
<g clip-path="url(#clip0_306_613)">
<path d="M15.5849 19.6659C14.6021 19.6659 13.6596 20.0888 12.9646 20.8417C12.2697 21.5946 11.8793 22.6157 11.8793 23.6804V33.0822H19.2906V23.6804C19.2906 22.6157 18.9002 21.5946 18.2052 20.8417C17.5103 20.0888 16.5677 19.6659 15.5849 19.6659Z" fill="white"/>
<path d="M17.2376 2.04697C16.784 1.60463 16.1953 1.35986 15.5849 1.35986C14.9746 1.35986 14.3858 1.60463 13.9322 2.04697L0.762268 14.8879V28.8047C0.762268 29.9404 1.17871 31.0296 1.91999 31.8326C2.66126 32.6357 3.66665 33.0868 4.71497 33.0868H9.40881V23.6809C9.40881 21.9064 10.0595 20.2046 11.2177 18.9498C12.376 17.6951 13.9469 16.9902 15.5849 16.9902C17.2229 16.9902 18.7938 17.6951 19.9521 18.9498C21.1103 20.2046 21.761 21.9064 21.761 23.6809V33.0828H26.4548C27.5032 33.0828 28.5086 32.6317 29.2498 31.8286C29.9911 31.0256 30.4076 29.9364 30.4076 28.8007V14.8839L17.2376 2.04697Z" fill="white"/>
</g>
<defs>
<clipPath id="clip0_306_613">
<rect width="29.6453" height="32.1157" fill="white" transform="translate(0.762268 0.932129)"/>
</clipPath>
</defs>
</svg>
